Video 
ID : 224 (0xE0) 
Format : MPEG Video 
Format version : Version 1 
Format settings, Matrix : Default 
Duration : 17mn 52s 
Bit rate mode : Constant 
Bit rate : 2 561 Kbps 
Nominal bit rate : 2 524 Kbps 
Width : 640 pixels 
Height : 480 pixels 
Display aspect ratio : 4:3 
Frame rate : 29.970 fps 
Scan type : Progressive 
Bits/(Pixel*Frame) : 0.278 
Stream size : 327 MiB (88%) 

Audio 
ID : 192 (0xC0) 
Format : MPEG Audio 
Format version : Version 1 
Format profile : Layer 2 
Duration : 17mn 52s 
Bit rate mode : Constant 
Bit rate : 224 Kbps 
Channel(s) : 2 channels 
Sampling rate : 44.1 KHz 
Resolution : 16 bits 
Video delay : -77ms 
Stream size : 28.6 MiB (8%) 

Text 
ID : 0 (0x0) 
Format : RLE 
Format/Info : Run-length encoding